<?xml version="1.0" encoding="utf-8"?>
<!-- Generator: Adobe Illustrator 24.2.0, SVG Export Plug-In . SVG Version: 6.00 Build 0)  -->
<svg version="1.1" id="Camada_1" xmlns="http://www.w3.org/2000/svg" xmlns:xlink="http://www.w3.org/1999/xlink" x="0px" y="0px"
	 viewBox="0 0 100 100" style="enable-background:new 0 0 100 100;" xml:space="preserve">
<style type="text/css">
	.st0{fill:#00D9B5;}
</style>
<path id="logo" class="st0" d="M62.74,20.71c-2.42-1.04-5.22,0.08-6.25,2.5L36.05,70.84c-1.04,2.42,0.08,5.22,2.5,6.25
	c0.61,0.26,1.25,0.39,1.87,0.39c1.85,0,3.6-1.08,4.38-2.89l20.43-47.63C66.28,24.54,65.16,21.74,62.74,20.71z M24.1,52.68
	l-3.25-2.64L46.9,28.86c2.04-1.66,2.35-4.66,0.69-6.7c-1.66-2.04-4.66-2.35-6.7-0.69l-30.6,24.88c-1.11,0.9-1.76,2.26-1.76,3.69
	c0,1.43,0.65,2.79,1.76,3.69l7.8,6.34c0.88,0.72,1.95,1.07,3,1.07c1.38,0,2.76-0.6,3.7-1.76C26.45,57.34,26.14,54.34,24.1,52.68z
	 M89.71,46.35l-8.81-7.16c-2.04-1.66-5.04-1.35-6.7,0.69c-1.66,2.04-1.35,5.04,0.69,6.7l4.26,3.46L53.1,71.22
	c-2.04,1.66-2.35,4.66-0.69,6.7c0.94,1.16,2.31,1.76,3.7,1.76c1.06,0,2.12-0.35,3-1.07l30.6-24.88c1.11-0.9,1.76-2.26,1.76-3.69
	C91.46,48.61,90.82,47.25,89.71,46.35z"/>
</svg>
