<?xml version="1.0" encoding="utf-8"?>
<!-- Generator: Adobe Illustrator 24.2.0, SVG Export Plug-In . SVG Version: 6.00 Build 0)  -->
<svg version="1.1" id="Camada_1" xmlns="http://www.w3.org/2000/svg" xmlns:xlink="http://www.w3.org/1999/xlink" x="0px" y="0px"
	 viewBox="0 0 500 300" style="enable-background:new 0 0 500 300;" xml:space="preserve">
<style type="text/css">
	.st0{fill:#FFFFFF;}
	.st1{fill:#00D9B5;}
</style>
<path id="label" class="st0" d="M185.83,187.81l-5.18-7.02h-1.03v8.64h0.99v-7.01l5.18,7.01h1.01v-8.64h-0.97V187.81z
	 M230.99,181.71h2.81v7.72h0.99v-7.72h2.83v-0.91h-6.62V181.71z M222.39,189.43h0.99v-8.64h-0.99V189.43z M169.85,189.43h0.99v-8.64
	h-0.99V189.43z M198.84,120.32h-28.76v10.24h16.28v21.57c0,3.6-1.9,5.49-4.95,5.49c-2.78,0-6.51-1.76-9.97-5.36l-5.7,8.48
	c4.21,4.88,9.7,7.67,16.55,7.67c10.17,0,16.55-5.83,16.55-16.01V120.32z M196.28,182.9c0-0.74,0.73-1.18,1.84-1.18
	c0.69,0,1.6,0.21,2.38,0.72l0.42-0.88c-0.72-0.48-1.74-0.8-2.74-0.8c-1.79,0-2.99,0.86-2.99,2.22c0,3.1,4.86,1.87,4.85,4.18
	c0,0.84-0.78,1.34-2.02,1.34c-0.97,0-2.07-0.44-2.88-1.21l-0.44,0.85c0.81,0.78,2.05,1.32,3.31,1.32c1.85,0,3.12-0.93,3.12-2.36
	C201.14,183.98,196.28,185.15,196.28,182.9z M223.8,130.7c-6.04,0-11.33,1.42-17.1,4l3.32,8.14c3.93-1.9,7.94-2.92,10.99-2.92
	c4.61,0,6.99,2.03,6.99,5.49v0.41h-9.56c-9.09,0.14-14.04,4.14-14.04,11.12c0,6.72,4.68,11.46,12.55,11.46
	c4.95,0,8.68-1.63,11.06-4.68v4.14h11.87V144C239.81,135.59,233.91,130.7,223.8,130.7z M228.01,155.46
	c-0.74,2.78-3.73,4.75-7.33,4.75c-3.12,0-4.95-1.63-4.95-4.14c0-2.58,1.7-3.8,5.09-3.8h7.19V155.46z M208.16,181.71h2.81v7.72h0.99
	v-7.72h2.83v-0.91h-6.62V181.71z M440.3,135.99c-2.58-3.32-6.38-5.22-11.12-5.22c-10.11,0-16.82,7.39-16.82,18.59
	c0,11.4,6.78,18.99,17.09,18.99c4.61,0,8.34-1.83,10.85-5.22v4.75h12.08v-50.33H440.3V135.99z M432.43,158.86
	c-4.75,0-7.94-3.73-7.94-9.16c0-5.43,3.19-9.16,7.94-9.16c4.68,0,7.87,3.66,7.87,9.16C440.3,155.12,437.11,158.86,432.43,158.86z
	 M389.08,130.77c-12.08,0-20.01,7.46-20.01,18.72c0,11.33,7.94,18.79,20.01,18.79s20.08-7.46,20.08-18.79
	C409.16,138.23,401.15,130.77,389.08,130.77z M389.08,158.79c-4.68,0-7.87-3.66-7.87-9.16c0-5.43,3.19-9.09,7.87-9.09
	c4.75,0,7.94,3.66,7.94,9.09C397.02,155.12,393.83,158.79,389.08,158.79z M478.09,130.77c-11.46,0-19.13,7.53-19.13,18.93
	c0,11.19,7.39,18.59,19.4,18.59c6.78,0,12.28-2.31,16.01-6.51l-6.31-6.31c-2.44,2.44-5.49,3.73-8.61,3.73
	c-4.14,0-7.19-2.3-8.34-6.44h25.51C497.43,139.39,490.91,130.77,478.09,130.77z M470.83,146.3c0.82-4.21,3.39-7.05,7.33-7.05
	c4.07,0,6.78,2.85,6.78,7.05H470.83z M348.51,157.36c-7.33,0-12.89-5.84-12.89-13.5c0-7.6,5.56-13.36,12.89-13.36
	c4.14,0,8.68,2.44,11.8,6.24l7.19-8.61c-4.75-5.02-12.14-8.14-19.2-8.14c-14.52,0-25.44,10.31-25.44,24.01
	c0,13.98,10.65,24.42,24.96,24.42c7.05,0,14.65-3.46,19.74-8.82l-7.26-7.8C356.99,155.19,352.44,157.36,348.51,157.36z
	 M259.7,181.71h2.81v7.72h0.99v-7.72h2.83v-0.91h-6.62V181.71z M274.92,185.5h4.36v-0.9h-4.36v-2.9h4.87v-0.91h-5.86v8.64h6.02
	v-0.91h-5.03V185.5z M251.29,185.87c0,1.7-0.99,2.69-2.63,2.69c-1.64,0-2.65-0.99-2.65-2.69v-5.08h-0.99v5.08
	c0,2.26,1.37,3.59,3.64,3.59c2.26,0,3.61-1.33,3.61-3.59v-5.08h-0.99V185.87z M302.1,130.7c-6.04,0-11.33,1.42-17.09,4l3.32,8.14
	c3.93-1.9,7.94-2.92,10.99-2.92c4.61,0,6.99,2.03,6.99,5.49v0.41h-9.56c-9.09,0.14-14.04,4.14-14.04,11.12
	c0,6.72,4.68,11.46,12.55,11.46c4.95,0,8.68-1.63,11.06-4.68v4.14h11.87V144C318.11,135.59,312.21,130.7,302.1,130.7z
	 M306.31,155.46c-0.74,2.78-3.73,4.75-7.33,4.75c-3.12,0-4.95-1.63-4.95-4.14c0-2.58,1.7-3.8,5.09-3.8h7.19V155.46z M262.68,156.68
	l-7.67-25.51H242.6l13.7,36.7h12.41l13.77-36.7h-12.08L262.68,156.68z"/>
<path id="logo" class="st1" d="M99.26,98.15c-4.28-1.83-9.23,0.14-11.07,4.42l-36.17,84.31c-1.84,4.28,0.15,9.23,4.42,11.07
	c1.08,0.46,2.21,0.68,3.32,0.68c3.27,0,6.38-1.91,7.75-5.11l36.17-84.31C105.52,104.94,103.54,99.99,99.26,98.15z M30.86,154.75
	l-5.76-4.68l46.12-37.5c3.61-2.94,4.16-8.24,1.22-11.86c-2.94-3.61-8.24-4.16-11.86-1.22L6.43,143.53c-1.97,1.6-3.11,4-3.11,6.54
	c0,2.54,1.14,4.94,3.11,6.54l13.8,11.22c1.56,1.27,3.44,1.89,5.31,1.89c2.45,0,4.88-1.06,6.54-3.11
	C35.02,162.99,34.47,157.69,30.86,154.75z M146.99,143.53l-15.58-12.67c-3.61-2.94-8.92-2.39-11.86,1.22
	c-2.94,3.61-2.39,8.92,1.22,11.86l7.54,6.13l-46.12,37.5c-3.61,2.94-4.16,8.24-1.22,11.86c1.67,2.05,4.09,3.11,6.54,3.11
	c1.87,0,3.75-0.62,5.31-1.89l54.16-44.03c1.97-1.6,3.11-4,3.11-6.54C150.1,147.53,148.96,145.13,146.99,143.53z"/>
</svg>
